<svg width="68" height="38" viewBox="0 0 68 38" fill="none" xmlns="http://www.w3.org/2000/svg">
  <path d="M3 18.9802L15.742 6.43707L28.4839 18.9802L15.742 31.5232L3 18.9802Z" fill="#4CC9C3"/>
  <path d="M39.5161 19.8394L52.258 7.29634L65 19.8394L52.258 32.3825L39.5161 19.8394Z" fill="#4CC9C3"/>
  <path d="M21.1853 18.9802L33.9273 6.43707L46.6692 18.9802L33.9273 31.5232L21.1853 18.9802Z" fill="#4CC9C3"/>
  <path d="M7.07351 19L23.3272 3L39.5809 19L23.3272 35L7.07351 19Z" fill="#319795"/>
  <path d="M28.4594 19L44.7131 3L60.9668 19L44.7131 35L28.4594 19Z" fill="#319795"/>
  <path d="M2.29848 18.2675L1.57453 18.9802L2.29848 19.6928L15.0404 32.2359L15.742 32.9265L16.4435 32.2359L17.7686 30.9314L22.6257 35.7126L23.3272 36.4032L24.0287 35.7126L30.3932 29.4475L33.2257 32.2359L33.9273 32.9265L34.6288 32.2359L37.5542 29.3561L44.0116 35.7126L44.7131 36.4032L45.4146 35.7126L49.8151 31.3809L51.5565 33.0951L52.258 33.7857L52.9596 33.0951L65.7015 20.5521L66.4255 19.8394L65.7015 19.1268L52.9596 6.5837L52.258 5.89312L51.5565 6.5837L50.6678 7.45853L45.4146 2.28735L44.7131 1.59678L44.0116 2.28735L37.5744 8.62407L34.6288 5.72443L33.9273 5.03385L33.2257 5.72443L30.373 8.53261L24.0287 2.28735L23.3272 1.59678L22.6257 2.28735L17.7888 7.04874L16.4435 5.72443L15.742 5.03385L15.0404 5.72443L2.29848 18.2675Z" stroke="#216F6D" stroke-width="2"/>
</svg>
